<svg width="16" height="15" viewBox="0 0 16 15" fill="none" xmlns="http://www.w3.org/2000/svg">
<path d="M6.66659 11.2724V12.8333C6.66659 13.5697 7.26354 14.1667 7.99992 14.1667C8.7363 14.1667 9.33325 13.5697 9.33325 12.8333V11.2724M7.99992 0.833328V1.49999M1.99992 7.5H1.33325M3.66659 3.16666L3.26652 2.7666M12.3333 3.16666L12.7334 2.7666M14.6666 7.5H13.9999M11.9999 7.5C11.9999 9.70913 10.2091 11.5 7.99992 11.5C5.79078 11.5 3.99992 9.70913 3.99992 7.5C3.99992 5.29086 5.79078 3.49999 7.99992 3.49999C10.2091 3.49999 11.9999 5.29086 11.9999 7.5Z" stroke="#1C4C82" stroke-width="1.33333" stroke-linecap="round" stroke-linejoin="round"/>
</svg>
