<svg width="24" height="25" viewBox="0 0 24 25" fill="none" xmlns="http://www.w3.org/2000/svg">
<path d="M12 20.5C14.1217 20.5 16.1566 19.6571 17.6569 18.1569C19.1571 16.6566 20 14.6217 20 12.5C20 10.3783 19.1571 8.34344 17.6569 6.84315C16.1566 5.34285 14.1217 4.5 12 4.5C9.87827 4.5 7.84344 5.34285 6.34315 6.84315C4.84285 8.34344 4 10.3783 4 12.5C4 14.6217 4.84285 16.6566 6.34315 18.1569C7.84344 19.6571 9.87827 20.5 12 20.5Z" stroke="#1C4C82" stroke-width="2" stroke-linecap="round" stroke-linejoin="round"/>
<path d="M12 14.5C12.5304 14.5 13.0391 14.2893 13.4142 13.9142C13.7893 13.5391 14 13.0304 14 12.5C14 11.9696 13.7893 11.4609 13.4142 11.0858C13.0391 10.7107 12.5304 10.5 12 10.5C11.4696 10.5 10.9609 10.7107 10.5858 11.0858C10.2107 11.4609 10 11.9696 10 12.5C10 13.0304 10.2107 13.5391 10.5858 13.9142C10.9609 14.2893 11.4696 14.5 12 14.5Z" stroke="#1C4C82" stroke-width="2" stroke-linecap="round" stroke-linejoin="round"/>
<path d="M12 2.5V4.5" stroke="#1C4C82" stroke-width="2" stroke-linecap="round" stroke-linejoin="round"/>
<path d="M12 22.5V20.5" stroke="#1C4C82" stroke-width="2" stroke-linecap="round" stroke-linejoin="round"/>
<path d="M17 21.1601L16 19.4301" stroke="#1C4C82" stroke-width="2" stroke-linecap="round" stroke-linejoin="round"/>
<path d="M11 10.77L7 3.83997" stroke="#1C4C82" stroke-width="2" stroke-linecap="round" stroke-linejoin="round"/>
<path d="M20.66 17.5L18.93 16.5" stroke="#1C4C82" stroke-width="2" stroke-linecap="round" stroke-linejoin="round"/>
<path d="M3.34 7.5L5.07 8.5" stroke="#1C4C82" stroke-width="2" stroke-linecap="round" stroke-linejoin="round"/>
<path d="M14 12.5H22" stroke="#1C4C82" stroke-width="2" stroke-linecap="round" stroke-linejoin="round"/>
<path d="M2 12.5H4" stroke="#1C4C82" stroke-width="2" stroke-linecap="round" stroke-linejoin="round"/>
<path d="M20.66 7.5L18.93 8.5" stroke="#1C4C82" stroke-width="2" stroke-linecap="round" stroke-linejoin="round"/>
<path d="M3.34 17.5L5.07 16.5" stroke="#1C4C82" stroke-width="2" stroke-linecap="round" stroke-linejoin="round"/>
<path d="M17 3.83997L16 5.56997" stroke="#1C4C82" stroke-width="2" stroke-linecap="round" stroke-linejoin="round"/>
<path d="M11 14.23L7 21.16" stroke="#1C4C82" stroke-width="2" stroke-linecap="round" stroke-linejoin="round"/>
</svg>
